<?xml version="1.0" encoding="UTF-8" standalone="no"?>
<!-- Created with Inkscape (http://www.inkscape.org/) -->

<svg
   xmlns:dc="http://purl.org/dc/elements/1.1/"
   xmlns:cc="http://creativecommons.org/ns#"
   xmlns:rdf="http://www.w3.org/1999/02/22-rdf-syntax-ns#"
   xmlns:svg="http://www.w3.org/2000/svg"
   xmlns="http://www.w3.org/2000/svg"
   xmlns:sodipodi="http://sodipodi.sourceforge.net/DTD/sodipodi-0.dtd"
   xmlns:inkscape="http://www.inkscape.org/namespaces/inkscape"
   width="2.4760001in"
   height="1in"
   viewBox="0 0 62.890401 25.400001"
   version="1.1"
   id="svg8"
   inkscape:version="0.92.3 (2405546, 2018-03-11)"
   sodipodi:docname="cmc.svg"
   inkscape:export-filename="/home/david/Documents/portfolio/coffee-metal-code/client/public/assets/logo/cmc.png"
   inkscape:export-xdpi="2400"
   inkscape:export-ydpi="2400">
  <defs
     id="defs2" />
  <sodipodi:namedview
     id="base"
     pagecolor="#ffffff"
     bordercolor="#000000"
     borderopacity="1"
     inkscape:pageopacity="0"
     inkscape:pageshadow="2"
     inkscape:zoom="0.98994949"
     inkscape:cx="409.95059"
     inkscape:cy="-27.518126"
     inkscape:document-units="mm"
     inkscape:current-layer="text12"
     showgrid="false"
     units="in"
     inkscape:window-width="1920"
     inkscape:window-height="1025"
     inkscape:window-x="0"
     inkscape:window-y="28"
     inkscape:window-maximized="1"
     inkscape:pagecheckerboard="true" />
  <metadata
     id="metadata5">
    <rdf:RDF>
      <cc:Work
         rdf:about="">
        <dc:format>image/svg+xml</dc:format>
        <dc:type
           rdf:resource="http://purl.org/dc/dcmitype/StillImage" />
        <dc:title></dc:title>
      </cc:Work>
    </rdf:RDF>
  </metadata>
  <g
     inkscape:label="Layer 1"
     inkscape:groupmode="layer"
     id="layer1"
     transform="translate(0,-271.59998)">
    <g
       aria-label="CMC"
       style="font-style:normal;font-variant:normal;font-weight:normal;font-stretch:normal;font-size:40.95999908px;line-height:1.25;font-family:'Urania Czech';-inkscape-font-specification:'Urania Czech, Normal';font-variant-ligatures:normal;font-variant-caps:normal;font-variant-numeric:normal;font-feature-settings:normal;text-align:start;letter-spacing:0px;word-spacing:0px;writing-mode:lr-tb;text-anchor:start;fill:#444444;fill-opacity:1;stroke:none;stroke-width:0.31999999"
       id="text12">
      <path
         d="m 7.9199998,271.59997 0.88,0.4 q 0.66,0 1.12,-0.24 0.4600002,0.4 0.9600002,0.4 l 0.4,0.4 0.72,-0.08 q 0,0.12 0.32,0.24 l 0.72,-0.16 h 0.8 q 0.3,0 0.72,-0.32 h 0.48 q 1.44,0.86 1.44,1.68 v 0.16 l -0.32,1.2 0.08,0.08 v 0.56 l -0.8,0.72 0.4,0.96 -0.24,1.12 0.32,0.48 v 0.32 q 0,0.82 0.56,1.92 l 0.08,0.4 q 0,0.24 -0.96,1.28 h -0.24 q -1.2,0 -1.36,-1.04 l -0.88,-0.88 -0.16,-0.16 0.16,-1.52 -0.88,-0.96 v -0.08 l 0.16,-0.72 q 0,-0.56 -1.68,-1.84 -0.48,-0.22 -0.9600002,-0.72 -0.34,0 -1.12,-0.8 0,0.24 -0.96,0.88 h -0.32 l -0.32,-0.08 q -1.4399999,0.44 -1.4399999,0.8 l 0.16,0.16 v 0.08 l -0.08,0.08 v 0.08 l -0.4,-0.08 q -1.04,0.6 -1.04,1.52 -0.34,0.1 -0.96,1.52 v 0.08 l 0.24,0.24 q -0.76,1.06 -1.04,1.92 L 2,282.15997 v 0.32 q 0,0.12 0.5599999,0.4 v 0.24 l -0.16,0.88 0.08,0.96 -0.08,0.32 0.16,0.64 -0.08,0.24 0.88,2.4 v 0.8 q 1.12,0.72 1.12,1.76 0.08,0.28 1.44,1.2 0.46,0.96 1.7599999,0.96 l 0.08,-0.08 h 0.4 q 0.88,0 1.68,-0.64 0.2400002,0 0.2400002,0.4 h 0.16 q 0.32,-0.08 0.72,-0.96 0.42,0 0.56,-0.88 0.68,-0.26 1.28,-1.04 0.36,-0.84 0.72,-1.2 l -0.08,-0.08 q 0,-1.36 1.68,-2 h 0.16 q 0.58,0.34 1.12,1.36 l 0.08,0.32 H 16.4 l 0.08,0.08 v 0.08 q -0.32,0.36 -0.4,1.44 l -0.48,0.72 v 1.04 q -0.98,2.64 -2.88,2.64 0,1.18 -1.12,1.52 -2.0000002,0.24 -2.0000002,0.64 l -0.48,0.24 q -0.7,-0.16 -1.28,-0.64 l -0.72,0.08 -1.1199999,-0.72 q -2.16,-0.26 -2.16,-1.2 -0.12,0 -0.72,-0.96 Q 2.04,292.31997 1.44,290.95997 l -0.4,-0.48 0.08,-0.64 -0.64000001,-1.28 L 0,287.03997 l 0.55999999,-1.04 v -0.24 q -0.2,0 -0.32,-0.64 v -0.72 q 0.02,-0.4 0.16,-0.4 l -0.08,-0.8 v -0.32 q 0.41999999,-0.38 0.55999999,-0.88 l -0.31999999,-0.96 0.15999999,-0.56 -0.15999999,-1.2 0.56000001,-0.64 v -0.08 l -0.08,-0.64 0.4,-1.92 q 0.34,-0.46 1.5999999,-1.12 0.2,-1.76 1.2,-1.76 0,-0.56 2.24,-1.04 0.1,-0.2 1.4399999,-0.48 z"
         style="font-style:normal;font-variant:normal;font-weight:normal;font-stretch:normal;font-size:40.95999908px;font-family:'Urania Czech';-inkscape-font-specification:'Urania Czech, Normal';font-variant-ligatures:normal;font-variant-caps:normal;font-variant-numeric:normal;font-feature-settings:normal;text-align:start;writing-mode:lr-tb;text-anchor:start;fill:#444444;fill-opacity:1;stroke-width:0.31999999"
         id="path28" />
      <path
         d="m 38.939999,272.03997 q 0.6,0.12 1.36,0.56 h 0.08 l 0.64,-0.16 q 1.28,0.32 1.28,1.04 l 0.08,0.4 q 0,1 -2.24,1.84 -0.4,0.62 -0.56,1.76 l 0.32,0.8 -0.16,0.48 0.16,1.44 -0.32,0.96 q 0.24,0.28 0.32,1.52 0,0.78 -0.48,1.76 0.08,0.52 0.4,1.04 l -0.08,0.08 0.16,1.12 v 0.64 l -0.32,0.88 q 0.4,1.12 0.4,2.24 v 0.56 q -0.24,0.3 -0.24,0.56 0,0.74 1.52,1.76 1.12,0.48 1.12,1.6 0,0.36 -1.04,1.44 l -1.12,0.4 q -0.32,-0.4 -0.72,-0.4 0,0.38 -0.72,0.48 -0.36,0 -0.96,-0.56 h -0.32 q -0.34,0.4 -1.36,0.4 h -0.16 q -1.58,-0.4 -2,-0.8 l 0.08,-0.4 -0.08,-0.88 q 0,-0.88 1.12,-0.88 0,-0.16 1.52,-0.4 0.46,-0.3 0.64,-1.04 0.48,-0.32 0.48,-0.56 -0.16,-0.48 -0.64,-0.96 v -0.16 l 0.4,-1.2 q -0.32,-0.44 -0.32,-0.8 l 0.32,-0.32 q 0,-0.5 -0.48,-1.44 l 0.56,-0.56 -0.08,-0.08 v -0.64 l 0.16,-0.64 -0.16,-0.96 0.08,-0.64 -0.48,-1.52 q 0.24,-1 0.4,-1.12 l -0.16,-0.72 h 0.08 q -0.1,-0.4 -0.24,-0.4 l 0.08,-0.32 -0.24,-0.72 0.48,-1.04 v -0.24 q -0.32,-0.48 -0.8,-0.48 l -0.4,0.24 0.24,1.04 q -0.16,2.32 -0.8,2.32 l -0.16,0.48 0.16,0.56 -0.16,0.72 0.08,0.64 q -0.14,0.84 -0.8,1.52 0.32,0.48 0.32,0.72 l -0.48,0.64 0.32,0.56 q -0.02,0.68 -0.8,1.44 l 0.08,0.08 v 0.56 l -0.16,0.48 0.32,0.88 h -0.08 l 0.08,0.24 q 0,0.42 -0.72,1.04 v 0.08 l 0.24,1.12 q -0.32,1 -0.48,2.56 l -0.24,0.24 v 1.04 q 0,0.32 -1.52,0.4 -0.56,0 -1.28,-1.92 -0.26,-0.22 -0.64,-0.96 0.06,-0.56 0.16,-0.56 -0.08,-0.4 -0.56,-1.2 v -0.16 q 0.1,-0.6 0.32,-0.64 -0.72,-1.24 -0.72,-1.76 l 0.16,-0.32 -0.08,-0.24 h 0.08 q -0.08,-0.38 -0.4,-0.72 l 0.24,-1.12 v -0.08 l -0.56,-1.12 0.08,-0.24 -0.08,-0.08 h 0.08 q -0.32,-0.48 -0.4,-1.36 l -0.16,-0.16 q 0.08,-0.24 0.48,-0.24 -0.38,-0.5 -0.64,-1.6 -0.62,0 -0.96,-2.32 -0.16,0 -0.16,-0.32 l -0.24,-0.24 -0.48,0.32 0.08,0.08 v 0.08 l -0.08,0.08 0.24,0.8 v 0.56 l -0.24,0.32 0.08,0.24 h -0.08 l 0.16,0.64 -0.16,0.64 v 0.08 q 0,0.48 0.56,0.48 v 0.24 q -0.48,0.36 -0.48,1.52 l 0.4,0.4 v 0.4 l -0.4,0.64 0.48,2.64 -0.4,1.2 v 0.16 l 0.24,0.56 -0.16,0.8 q 0,0.32 1.04,1.12 2,0.4 2,1.04 l 0.32,0.4 q 0,1.24 -1.52,2.24 0,0.16 -0.4,0.16 l -0.72,-0.24 q -0.88,0 -1.439999,0.4 l -0.8,-0.24 h -0.08 l -1.36,0.08 q -0.5,-0.52 -1.04,-0.56 l -0.64,0.24 h -0.16 q -0.6,0 -1.2,-0.8 l 0.08,-0.08 -0.08,-0.08 v -0.24 q 0.42,-1.6 2,-1.6 0.16,-0.52 0.96,-0.88 0.2,-0.3 0.32,-1.2 l -0.16,-1.2 0.48,-0.56 -0.08,-0.48 h 0.08 l -0.08,-0.08 v -1.52 l -0.32,-0.24 v -0.16 l 0.56,-1.12 -0.48,-0.72 v -0.08 q 0.02,-0.56 0.16,-0.56 -0.3,-0.6 -0.32,-1.6 0.64,-0.32 0.64,-0.8 l -0.24,-1.36 0.08,-0.88 -0.08,-0.56 0.16,-0.32 -0.08,-0.24 h 0.08 q -0.24,-0.52 -0.24,-1.12 v -0.16 l 0.08,-0.08 q 0,-0.4 -0.88,-0.96 v -0.24 l 0.16,-0.72 q -0.34,-0.32 -0.64,-0.32 l -0.56,0.08 q -1.2,-0.4 -1.2,-1.44 0,-1.16 1.04,-1.68 l 0.4,-0.08 0.32,0.08 1.04,-0.24 1.28,0.32 0.64,-0.08 0.08,0.08 0.399999,-0.08 h 0.24 q 1.68,0.14 1.68,0.64 1.2,1.1 1.28,1.84 l -0.16,0.64 q 0.48,1.16 0.48,1.92 l -0.08,0.56 q 0.8,0.72 0.8,1.12 v 0.16 q 0,0.16 -0.4,0.16 v 0.24 q 0.34,2.16 0.8,2.16 v 0.72 l -0.16,0.8 q 0.88,0.44 0.88,2.4 l -0.08,0.08 v 0.08 l 0.24,0.64 -0.08,0.32 0.24,0.16 q 0.72,0 0.8,-1.6 l 0.24,-0.24 -0.08,-0.08 v -0.08 l 0.08,-0.08 -0.08,-0.08 v -0.08 q 0.04,-1.04 0.48,-1.04 v -0.16 l -0.16,-0.64 v -0.16 q 0,-0.4 0.48,-0.88 l -0.24,-0.64 0.64,-0.96 v -0.16 l -0.08,-0.24 h 0.08 q -0.32,-0.6 -0.32,-1.04 l 0.4,-1.04 -0.08,-0.64 q 0.58,-0.32 0.64,-0.56 v -0.24 l -0.24,-0.56 0.64,-1.28 -0.08,-0.24 q 0.86,-1.38 2.4,-1.92 l 1.04,-0.08 h 0.08 q 0.46,-0.4 0.8,-0.4 z"
         style="font-style:normal;font-variant:normal;font-weight:normal;font-stretch:normal;font-size:40.95999908px;font-family:'Urania Czech';-inkscape-font-specification:'Urania Czech, Normal';font-variant-ligatures:normal;font-variant-caps:normal;font-variant-numeric:normal;font-feature-settings:normal;text-align:start;writing-mode:lr-tb;text-anchor:start;fill:#444444;fill-opacity:1;stroke-width:0.31999999"
         id="path30" />
      <path
         d="m 54.24,271.59997 0.879999,0.4 q 0.66,0 1.12,-0.24 0.46,0.4 0.96,0.4 l 0.4,0.4 0.72,-0.08 q 0,0.12 0.32,0.24 l 0.72,-0.16 h 0.8 q 0.3,0 0.72,-0.32 h 0.48 q 1.44,0.86 1.44,1.68 v 0.16 l -0.32,1.2 0.08,0.08 v 0.56 l -0.8,0.72 0.4,0.96 -0.24,1.12 0.32,0.48 v 0.32 q 0,0.82 0.56,1.92 l 0.08,0.4 q 0,0.24 -0.96,1.28 h -0.24 q -1.2,0 -1.36,-1.04 l -0.88,-0.88 -0.16,-0.16 0.16,-1.52 -0.88,-0.96 v -0.08 l 0.16,-0.72 q 0,-0.56 -1.68,-1.84 -0.48,-0.22 -0.96,-0.72 -0.34,0 -1.119999,-0.8 0,0.24 -0.96,0.88 h -0.32 l -0.32,-0.08 q -1.44,0.44 -1.44,0.8 l 0.16,0.16 v 0.08 l -0.08,0.08 v 0.08 l -0.4,-0.08 q -1.04,0.6 -1.04,1.52 -0.34,0.1 -0.96,1.52 v 0.08 l 0.24,0.24 q -0.76,1.06 -1.04,1.92 l -0.48,0.56 v 0.32 q 0,0.12 0.56,0.4 v 0.24 l -0.16,0.88 0.08,0.96 -0.08,0.32 0.16,0.64 -0.08,0.24 0.88,2.4 v 0.8 q 1.12,0.72 1.12,1.76 0.08,0.28 1.44,1.2 0.46,0.96 1.76,0.96 l 0.08,-0.08 h 0.4 q 0.879999,0 1.679999,-0.64 0.24,0 0.24,0.4 h 0.16 q 0.32,-0.08 0.72,-0.96 0.42,0 0.56,-0.88 0.68,-0.26 1.28,-1.04 0.36,-0.84 0.72,-1.2 l -0.08,-0.08 q 0,-1.36 1.68,-2 h 0.16 q 0.58,0.34 1.12,1.36 l 0.08,0.32 h -0.08 l 0.08,0.08 v 0.08 q -0.32,0.36 -0.4,1.44 l -0.48,0.72 v 1.04 q -0.98,2.64 -2.88,2.64 0,1.18 -1.12,1.52 -2,0.24 -2,0.64 l -0.48,0.24 q -0.699999,-0.16 -1.279999,-0.64 l -0.72,0.08 -1.12,-0.72 q -2.16,-0.26 -2.16,-1.2 -0.12,0 -0.72,-0.96 -1.08,-1.12 -1.68,-2.48 l -0.4,-0.48 0.08,-0.64 -0.64,-1.28 -0.48,-1.52 0.56,-1.04 v -0.24 q -0.2,0 -0.32,-0.64 v -0.72 q 0.02,-0.4 0.16,-0.4 l -0.08,-0.8 v -0.32 q 0.42,-0.38 0.56,-0.88 l -0.32,-0.96 0.16,-0.56 -0.16,-1.2 0.56,-0.64 v -0.08 l -0.08,-0.64 0.4,-1.92 q 0.34,-0.46 1.6,-1.12 0.2,-1.76 1.2,-1.76 0,-0.56 2.24,-1.04 0.1,-0.2 1.44,-0.48 z"
         style="font-style:normal;font-variant:normal;font-weight:normal;font-stretch:normal;font-size:40.95999908px;font-family:'Urania Czech';-inkscape-font-specification:'Urania Czech, Normal';font-variant-ligatures:normal;font-variant-caps:normal;font-variant-numeric:normal;font-feature-settings:normal;text-align:start;writing-mode:lr-tb;text-anchor:start;fill:#444444;fill-opacity:1;stroke-width:0.31999999"
         id="path32" />
    </g>
  </g>
</svg>
