<?xml version="1.0" encoding="UTF-8" standalone="no"?>
<!-- Created with Inkscape (http://www.inkscape.org/) -->

<svg
   xmlns:dc="http://purl.org/dc/elements/1.1/"
   xmlns:cc="http://creativecommons.org/ns#"
   xmlns:rdf="http://www.w3.org/1999/02/22-rdf-syntax-ns#"
   xmlns:svg="http://www.w3.org/2000/svg"
   xmlns="http://www.w3.org/2000/svg"
   xmlns:sodipodi="http://sodipodi.sourceforge.net/DTD/sodipodi-0.dtd"
   xmlns:inkscape="http://www.inkscape.org/namespaces/inkscape"
   width="12.5in"
   height="1.12in"
   viewBox="0 0 317.5 28.448001"
   version="1.1"
   id="svg8"
   inkscape:version="0.92.3 (2405546, 2018-03-11)"
   sodipodi:docname="logo.svg"
   inkscape:export-filename="/home/david/Documents/portfolio/coffee-metal-code/client/public/assets/logo/logo.png"
   inkscape:export-xdpi="2400"
   inkscape:export-ydpi="2400">
  <defs
     id="defs2" />
  <sodipodi:namedview
     id="base"
     pagecolor="#ffffff"
     bordercolor="#000000"
     borderopacity="1"
     inkscape:pageopacity="0"
     inkscape:pageshadow="2"
     inkscape:zoom="0.98994949"
     inkscape:cx="408.94044"
     inkscape:cy="-27.518126"
     inkscape:document-units="mm"
     inkscape:current-layer="text12"
     showgrid="false"
     units="in"
     inkscape:window-width="1920"
     inkscape:window-height="1025"
     inkscape:window-x="0"
     inkscape:window-y="28"
     inkscape:window-maximized="1"
     inkscape:pagecheckerboard="true" />
  <metadata
     id="metadata5">
    <rdf:RDF>
      <cc:Work
         rdf:about="">
        <dc:format>image/svg+xml</dc:format>
        <dc:type
           rdf:resource="http://purl.org/dc/dcmitype/StillImage" />
        <dc:title></dc:title>
      </cc:Work>
    </rdf:RDF>
  </metadata>
  <g
     inkscape:label="Layer 1"
     inkscape:groupmode="layer"
     id="layer1"
     transform="translate(0,-268.55198)">
    <g
       aria-label="coffee | metal | code"
       style="font-style:normal;font-variant:normal;font-weight:normal;font-stretch:normal;font-size:33.86666489px;line-height:1.25;font-family:'Urania Czech';-inkscape-font-specification:'Urania Czech, Normal';font-variant-ligatures:normal;font-variant-caps:normal;font-variant-numeric:normal;font-feature-settings:normal;text-align:start;letter-spacing:0px;word-spacing:0px;writing-mode:lr-tb;text-anchor:start;fill:#444444;fill-opacity:1;stroke:none;stroke-width:0.26458332"
       id="text12">
      <g
         id="g214">
        <path
           id="path162"
           style="font-style:normal;font-variant:normal;font-weight:normal;font-stretch:normal;font-size:33.86666489px;font-family:'Urania Czech';-inkscape-font-specification:'Urania Czech, Normal';font-variant-ligatures:normal;font-variant-caps:normal;font-variant-numeric:normal;font-feature-settings:normal;text-align:start;writing-mode:lr-tb;text-anchor:start;fill:#444444;fill-opacity:1;stroke-width:0.26458332"
           d="m 6.813028,276.19713 h 0.066146 q 1.1244791,0.0165 1.1244791,0.13229 l 0.1984375,-0.0662 q 0.6945312,0 2.6458336,0.8599 1.041796,0 1.918229,1.98437 0.578776,0 0.79375,2.71198 0,0.57878 -0.926042,0.79375 -0.04961,0.11576 -0.859896,0.39688 -0.09922,0.33073 -0.463021,0.33073 -0.363802,0 -0.992187,-0.8599 -0.396875,-1.42213 -0.5291667,-2.97656 -0.3307291,-0.29766 -0.9260416,-0.46302 l -0.3968749,0.13229 h -0.066146 l -0.9921874,-0.39687 -0.396875,-0.39688 H 6.8791738 q 0,0.57878 -0.5953124,0.79375 L 5.3578197,279.0414 q -0.1322916,0 -0.5291666,0.79375 l -0.6614583,0.99219 q -0.2480469,0 -0.8598958,1.78593 l 0.066146,0.0661 v 0.0661 l -0.2645834,0.7276 0.1984375,0.7276 -0.1984375,1.52136 0.066146,0.0661 v 0.0661 l -0.066146,0.26458 q 0.099219,0.28112 1.0583333,0.79375 0.8268229,1.32292 1.1244791,1.32292 0.2976563,0 0.79375,0.39687 l 0.5291666,0.1323 0.4630208,-0.1323 0.2645833,0.0661 q 0.8268229,-0.19844 1.4552083,-0.19844 h 0.1984375 q 1.0252606,-1.05833 1.9182286,-1.05833 0.363803,-0.19844 0.727605,-1.12448 0.810286,-0.7276 1.124479,-0.7276 h 0.06615 q 0.661458,0.71106 0.661458,1.19062 0,0.39688 -0.463021,0.92604 -0.297656,1.52136 -0.595312,1.52136 -0.347266,0 -2.050521,1.52135 -0.28112,0.23151 -1.1906251,0.33073 0,0.19844 -0.9260416,0.33073 l -0.7276042,-0.33073 -0.7937499,0.33073 Q 5.9200593,291.26184 5.6224031,290.8815 l -0.4630208,0.0661 H 4.9609448 q -0.7276042,-0.90951 -1.5874999,-1.19063 -1.0583333,-0.71106 -1.0583333,-1.38906 l -0.066146,-0.0661 q 0,-0.19843 -0.4630208,-0.19843 Q 1.5378981,287.82226 1.38907,286.9789 v -0.13229 l 0.1322916,-0.46302 q -0.59531245,-0.76068 -0.59531245,-2.24896 l -0.0661458,-0.19844 0.26458328,-0.46302 v -0.0661 q 0,-0.38034 -0.39687494,-0.85989 v -0.0661 l 0.39687494,-0.85989 v -0.19844 l -0.066146,-0.39688 q 0.7276041,-0.76067 0.7276041,-1.65364 0.5622396,-0.24805 0.9260417,-0.72761 0,-0.46302 1.3890624,-1.05833 0,-0.38034 1.5213541,-0.52917 0.8433593,-0.85989 1.1906249,-0.85989 z" />
        <path
           id="path164"
           style="font-style:normal;font-variant:normal;font-weight:normal;font-stretch:normal;font-size:33.86666489px;font-family:'Urania Czech';-inkscape-font-specification:'Urania Czech, Normal';font-variant-ligatures:normal;font-variant-caps:normal;font-variant-numeric:normal;font-feature-settings:normal;text-align:start;writing-mode:lr-tb;text-anchor:start;fill:#444444;fill-opacity:1;stroke-width:0.26458332"
           d="m 22.39037,276.09791 h 0.132292 l 1.190625,0.26458 0.727604,-0.19843 h 0.06615 q 1.25677,0.33072 1.719791,0.7276 l 0.396875,-0.13229 q 0.396875,0 0.727604,0.7276 0.214974,0.19844 0.859896,0.26459 1.190625,1.32291 1.190625,2.3151 0,0.64492 0.529167,1.05833 l 0.330729,1.71979 -0.06615,0.79375 0.06615,0.0661 v 0.0661 l -0.06615,0.0661 v 0.0661 l 0.198438,0.46302 q 0,1.98437 -0.529167,1.98437 l -0.198438,0.66146 0.06615,0.46302 -0.595312,0.79375 q -0.06615,0.29766 -0.859896,1.05834 0,0.56223 -1.058333,0.66145 l -0.595313,0.46302 q -0.347265,0.24805 -0.463021,0.8599 l -0.198437,0.13229 h -0.330729 l -0.79375,-0.19844 q -0.578776,0.33073 -0.926042,0.33073 h -0.06615 q -0.314192,0 -0.992187,-0.46302 l -0.992188,0.0662 q -0.51263,-0.5457 -1.521354,-0.8599 l -0.396875,0.0661 q -0.992187,-0.8599 -0.992187,-1.65365 -0.429948,0 -0.992187,-0.66146 -0.231511,0 -0.595313,-0.79375 0.115755,-0.39687 0.198438,-0.39687 -0.181901,-0.51263 -0.33073,-0.59531 l 0.06615,-0.66146 -0.06615,-0.72761 0.06615,-0.19843 -0.264583,-0.72761 0.06615,-0.26458 -0.132292,-0.52917 q 0.595313,-0.76067 0.595313,-1.12448 l -0.06615,-0.85989 q 0,-1.05834 0.595312,-1.38906 0.314193,-0.28112 0.396875,-0.99219 0.661458,-0.92604 0.79375,-0.92604 0.297656,0 1.256771,-0.99219 l 1.5875,-0.39688 q 0.148828,-0.39687 0.264583,-0.39687 z m -0.859896,3.43958 h -0.06615 l -0.463021,-0.13229 q -0.380339,0.14883 -0.661459,0.46302 v 0.0661 l 0.264584,0.33073 q -0.231511,0.21497 -0.595313,1.25677 h -0.06615 l 0.06615,0.0661 v 0.19844 q -0.264583,0.23151 -0.396875,1.19063 l 0.396875,1.52135 v 0.0661 l -0.396875,0.46302 q 0,0.16536 0.727604,1.12448 l 0.132292,0.7276 0.330729,-0.0661 h 0.06615 l 0.463021,0.8599 0.06615,0.0661 h 0.198437 q 0,-0.19844 0.132292,-0.19844 0.248047,0 1.5875,0.7276 l 0.661458,0.13229 0.396875,-0.0661 0.264583,0.0661 q 1.455209,-0.47955 1.455209,-0.99218 l -0.132292,-0.72761 h 0.06615 q 1.190625,-0.16536 1.190625,-0.99219 0.363802,0 0.529166,-1.25677 0.115756,0 0.264584,-0.79375 -0.347266,-2.05052 -0.661459,-2.05052 l -0.132291,-0.59531 h 0.06615 q -0.148829,-0.92604 -0.727605,-0.92604 -0.843359,-0.99219 -1.190625,-0.99219 h -0.330729 l -0.330729,0.26458 q -0.264583,0 -0.264583,-0.59531 l -0.859896,-0.52916 q -0.148828,0 -0.661458,0.52916 -0.826823,0.14883 -1.389063,0.79375 z" />
        <path
           id="path166"
           style="font-style:normal;font-variant:normal;font-weight:normal;font-stretch:normal;font-size:33.86666489px;font-family:'Urania Czech';-inkscape-font-specification:'Urania Czech, Normal';font-variant-ligatures:normal;font-variant-caps:normal;font-variant-numeric:normal;font-feature-settings:normal;text-align:start;writing-mode:lr-tb;text-anchor:start;fill:#444444;fill-opacity:1;stroke-width:0.26458332"
           d="m 43.044408,270.09518 0.727604,0.19843 h 0.330729 q 0.248047,-0.19843 0.463021,-0.19843 1.058333,0.1819 1.058333,0.26458 l 0.06615,-0.0661 h 0.06615 q 0.876432,0.11576 1.455208,0.66146 0.03307,0.34727 1.058334,0.8599 0,0.9095 0.396875,1.65364 -0.04961,0.34727 -0.79375,1.19063 -0.777214,1.19062 -1.5875,1.19062 -0.330729,-0.33073 -0.595313,-0.92604 -1.124479,-0.87643 -1.124479,-2.11667 -0.214974,0 -0.926042,-0.52916 h -0.132291 q -0.760677,0.28112 -1.124479,0.59531 -0.413412,0 -1.058334,0.7276 -0.198437,0 -0.198437,0.19844 l 0.06615,0.26459 q -0.330729,0.74414 -0.330729,1.05833 v 0.33073 q 0,0.3638 1.521354,0.59531 l 0.79375,-0.26458 0.859895,0.26458 0.463021,-0.33073 H 44.7642 q 0.297656,0.13229 0.79375,0.8599 v 0.19843 q 0,0.4961 -0.926042,1.05834 h -0.132292 l -0.661458,-0.19844 q -1.02526,0.52917 -1.256771,0.52917 l -0.529166,-0.0661 -0.198438,0.13229 -0.463021,-0.0661 h -0.198437 q -0.214974,0.0331 -0.727604,1.19062 h -0.06615 l 0.132291,0.52917 -0.132291,0.59531 0.330729,0.92604 v 0.13229 q 0,0.38034 -0.330729,0.79375 0,0.24805 0.396875,0.79375 l -0.198438,0.52917 0.198438,0.92604 q -0.463021,0.64492 -0.463021,0.99219 0.248047,0.16536 0.595312,1.98437 h 0.132292 v 0.0662 l 0.06615,-0.0662 h 0.198437 l 1.058334,0.39688 h 0.132291 q 0.231511,-0.19844 0.992188,-0.19844 l 0.595312,0.33073 0.595313,-0.19844 h 0.06615 q 0.529166,0 0.859895,0.92605 0,0.99218 -0.859895,0.99218 l -0.264584,-0.0661 h -0.06615 l -1.389062,0.46302 h -0.06615 l -0.529166,-0.13229 h -0.132292 q -0.463021,0.39687 -1.124479,0.39687 h -0.06615 l -0.79375,-0.33073 q -0.56224,0.33073 -1.124479,0.33073 -0.115755,0 -0.595313,-0.52917 l -0.595312,0.0661 -1.058333,-0.13229 q 0,0.33073 -1.058334,0.39687 -0.529166,-0.33073 -0.79375,-0.33073 l -0.46302,0.0661 Q 33.6517,289.4759 33.6517,289.07903 v -0.19844 q 0,-0.51263 0.859896,-1.05833 l 1.058333,0.0661 h 0.06615 l 0.06615,0.0661 0.529167,-0.19844 0.46302,0.13229 q 1.719792,-0.1819 1.719792,-0.85989 l 0.132292,-0.46302 -0.132292,-0.66146 q 0.330729,-0.5457 0.330729,-0.99219 l -0.132292,-0.92604 0.06615,-0.46302 -0.132291,-0.72761 0.198437,-0.52916 q -0.463021,-0.62839 -0.463021,-0.79375 h 0.06615 l -0.06615,-0.0661 v -0.0661 l 0.330729,-0.66146 -0.132291,-0.46302 0.330729,-0.99219 q -0.611849,-0.8599 -0.992188,-0.8599 l -0.46302,0.1323 q -0.148828,0 -0.992188,-0.66146 l -0.859896,0.13229 q -0.595312,0 -0.992187,-0.46302 l 0.06615,-0.39688 -0.264584,-0.66146 0.926042,-0.46302 q 0,-0.11575 0.926042,-0.26458 h 0.06615 l 0.79375,0.19844 h 0.330729 q 0.115755,0 0.595312,-0.66146 0.595313,-0.21497 0.595313,-0.79375 0,-0.3638 0.46302,-0.99219 l 0.06615,-0.33073 v -0.0661 l -0.06615,-0.39688 q 0,-0.28112 1.058334,-1.19062 0,-0.59531 1.455208,-0.92604 0.214974,-0.18191 1.521354,-0.46302 z" />
        <path
           id="path168"
           style="font-style:normal;font-variant:normal;font-weight:normal;font-stretch:normal;font-size:33.86666489px;font-family:'Urania Czech';-inkscape-font-specification:'Urania Czech, Normal';font-variant-ligatures:normal;font-variant-caps:normal;font-variant-numeric:normal;font-feature-settings:normal;text-align:start;writing-mode:lr-tb;text-anchor:start;fill:#444444;fill-opacity:1;stroke-width:0.26458332"
           d="m 61.036069,270.09518 0.727604,0.19843 h 0.330729 q 0.248047,-0.19843 0.463021,-0.19843 1.058333,0.1819 1.058333,0.26458 l 0.06615,-0.0661 h 0.06615 q 0.876432,0.11576 1.455208,0.66146 0.03307,0.34727 1.058334,0.8599 0,0.9095 0.396875,1.65364 -0.04961,0.34727 -0.79375,1.19063 -0.777214,1.19062 -1.5875,1.19062 -0.330729,-0.33073 -0.595313,-0.92604 -1.124479,-0.87643 -1.124479,-2.11667 -0.214974,0 -0.926041,-0.52916 H 61.49909 q -0.760677,0.28112 -1.124479,0.59531 -0.413412,0 -1.058333,0.7276 -0.198438,0 -0.198438,0.19844 l 0.06615,0.26459 q -0.330729,0.74414 -0.330729,1.05833 v 0.33073 q 0,0.3638 1.521354,0.59531 l 0.79375,-0.26458 0.859896,0.26458 0.46302,-0.33073 h 0.264584 q 0.297656,0.13229 0.79375,0.8599 v 0.19843 q 0,0.4961 -0.926042,1.05834 h -0.132292 l -0.661458,-0.19844 q -1.02526,0.52917 -1.256771,0.52917 l -0.529166,-0.0661 -0.198438,0.13229 -0.463021,-0.0661 h -0.198437 q -0.214974,0.0331 -0.727604,1.19062 h -0.06615 l 0.132292,0.52917 -0.132292,0.59531 0.330729,0.92604 v 0.13229 q 0,0.38034 -0.330729,0.79375 0,0.24805 0.396875,0.79375 l -0.198438,0.52917 0.198438,0.92604 q -0.463021,0.64492 -0.463021,0.99219 0.248047,0.16536 0.595313,1.98437 h 0.132291 v 0.0662 l 0.06615,-0.0662 h 0.198438 l 1.058333,0.39688 h 0.132291 q 0.231511,-0.19844 0.992188,-0.19844 l 0.595312,0.33073 0.595313,-0.19844 h 0.06615 q 0.529166,0 0.859895,0.92605 0,0.99218 -0.859895,0.99218 l -0.264584,-0.0661 h -0.06614 l -1.389063,0.46302 h -0.06615 l -0.529166,-0.13229 h -0.132292 q -0.463021,0.39687 -1.124479,0.39687 h -0.06615 l -0.79375,-0.33073 q -0.562239,0.33073 -1.124479,0.33073 -0.115755,0 -0.595312,-0.52917 l -0.595313,0.0661 -1.058333,-0.13229 q 0,0.33073 -1.058334,0.39687 -0.529166,-0.33073 -0.793749,-0.33073 l -0.463021,0.0661 q -0.992188,-0.52917 -0.992188,-0.92604 v -0.19844 q 0,-0.51263 0.859896,-1.05833 l 1.058333,0.0661 h 0.06615 l 0.06615,0.0661 0.529167,-0.19844 0.46302,0.13229 q 1.719792,-0.1819 1.719792,-0.85989 l 0.132292,-0.46302 -0.132292,-0.66146 q 0.330729,-0.5457 0.330729,-0.99219 l -0.132291,-0.92604 0.06615,-0.46302 -0.132291,-0.72761 0.198437,-0.52916 q -0.463021,-0.62839 -0.463021,-0.79375 h 0.06615 l -0.06615,-0.0661 v -0.0661 l 0.33073,-0.66146 -0.132292,-0.46302 0.330729,-0.99219 q -0.611849,-0.8599 -0.992187,-0.8599 l -0.463021,0.1323 q -0.148828,0 -0.992188,-0.66146 l -0.859896,0.13229 q -0.595312,0 -0.992187,-0.46302 l 0.06615,-0.39688 -0.264583,-0.66146 0.926041,-0.46302 q 0,-0.11575 0.926042,-0.26458 h 0.06615 l 0.79375,0.19844 h 0.330729 q 0.115755,0 0.595312,-0.66146 0.595313,-0.21497 0.595313,-0.79375 0,-0.3638 0.46302,-0.99219 l 0.06615,-0.33073 v -0.0661 l -0.06615,-0.39688 q 0,-0.28112 1.058334,-1.19062 0,-0.59531 1.455208,-0.92604 0.214974,-0.18191 1.521354,-0.46302 z" />
        <path
           id="path170"
           style="font-style:normal;font-variant:normal;font-weight:normal;font-stretch:normal;font-size:33.86666489px;font-family:'Urania Czech';-inkscape-font-specification:'Urania Czech, Normal';font-variant-ligatures:normal;font-variant-caps:normal;font-variant-numeric:normal;font-feature-settings:normal;text-align:start;writing-mode:lr-tb;text-anchor:start;fill:#444444;fill-opacity:1;stroke-width:0.26458332"
           d="m 77.853649,275.83333 h 0.06615 q 0.727604,0.79375 1.719792,0.79375 0.463021,0 1.25677,0.99218 0.810287,0 1.322917,2.4474 0.595313,0.44648 0.595313,1.52135 0,1.14102 -0.79375,1.91823 l -0.264584,0.66146 h -0.06615 l -0.396875,-0.0662 q -0.529166,0.38034 -1.058333,0.46303 v -0.0661 l -0.595312,0.19844 -0.859896,-0.46302 -0.198438,0.0661 -0.198437,-0.13229 q -0.843359,0.28112 -1.5875,0.7276 h -0.330729 q -0.264583,0 -0.529167,-0.33072 -0.661458,0 -0.661458,0.39687 l -0.330729,0.13229 q -0.760677,-0.13229 -1.058333,-0.46302 -1.190625,0.23151 -1.190625,0.72761 v 0.19843 l 0.06614,0.26459 -0.06614,0.0661 v 0.0661 q 0,0.34726 0.727604,0.79375 0.115755,0.92604 0.661458,0.92604 0.463021,0 0.992187,0.39687 l 1.653646,0.39688 h 0.198438 q 0.380338,0 0.992187,-0.59531 0.165365,0 0.463021,-0.39688 l 0.264583,-0.0661 0.198438,0.13229 h 0.06615 q 0.330729,0 0.661458,-0.59531 0.330729,0 0.79375,-0.52917 l 0.926041,-0.52917 q 1.058334,0.51263 1.058334,1.19063 -0.479558,0.51263 -0.595313,1.38906 -1.058333,0.62838 -1.058333,1.12448 -0.595312,0.71107 -2.116667,1.25677 0,0.13229 -0.330729,0.13229 v 0.0661 l -1.058333,-0.13229 -1.190625,0.33072 q -1.058333,-0.66145 -1.389062,-0.66145 -1.455209,0 -1.455209,-0.66146 -0.248046,-0.19844 -0.46302,-0.19844 l -0.33073,0.0661 q -0.297656,-0.29766 -0.595312,-0.99219 -0.248047,-0.13229 -0.529167,-0.79375 -0.777213,-0.39688 -0.79375,-0.72761 l 0.06615,-0.0661 v -0.0662 q -0.396875,-0.61185 -0.396875,-0.79375 0,-0.7276 -0.529166,-2.3151 l 0.132291,-0.52917 -0.06615,-0.39687 v -0.0661 l 0.529167,-1.52135 q 0,-1.71979 0.926042,-2.77813 l 0.06615,-0.0661 q 0.132291,0 0.132291,-0.39688 l 1.653646,-1.25677 q 0.413411,0 0.926042,-0.59531 l 1.852083,-0.33073 q 0.396875,0.0496 0.396875,0.13229 z m -1.852083,2.64583 q 0,0.33073 -0.396875,0.59531 h -0.198437 q -0.248047,0 -0.595313,-0.26458 h -0.264583 l -1.322917,1.05833 -0.463021,0.79375 v 0.26458 q 0.28112,0.38034 1.256771,0.99219 l 0.06615,0.0661 v 0.0661 q 0.396875,-0.26458 0.595312,-0.26458 h 0.06615 l 0.79375,0.19844 q 0.595313,-0.1819 1.124479,-0.52917 0.727605,0.52917 0.992188,0.52917 h 0.06615 q 0.23151,0 0.727604,-0.39688 h 0.132291 l 0.198438,0.13229 h 0.132292 q 0.859895,-0.38033 0.859895,-1.32291 -0.115755,-0.31419 -1.389062,-1.45521 l -0.529167,0.0661 -0.264583,-0.0661 -0.529167,0.19844 h -0.264583 z" />
        <path
           id="path172"
           style="font-style:normal;font-variant:normal;font-weight:normal;font-stretch:normal;font-size:33.86666489px;font-family:'Urania Czech';-inkscape-font-specification:'Urania Czech, Normal';font-variant-ligatures:normal;font-variant-caps:normal;font-variant-numeric:normal;font-feature-settings:normal;text-align:start;writing-mode:lr-tb;text-anchor:start;fill:#444444;fill-opacity:1;stroke-width:0.26458332"
           d="m 94.390103,275.83333 h 0.06615 q 0.727605,0.79375 1.719792,0.79375 0.463021,0 1.256771,0.99218 0.810286,0 1.322916,2.4474 0.595313,0.44648 0.595313,1.52135 0,1.14102 -0.79375,1.91823 l -0.264583,0.66146 h -0.06615 l -0.396875,-0.0662 q -0.529167,0.38034 -1.058334,0.46303 v -0.0661 l -0.595312,0.19844 -0.859896,-0.46302 -0.198437,0.0661 -0.198438,-0.13229 q -0.843359,0.28112 -1.5875,0.7276 H 93.00104 q -0.264583,0 -0.529166,-0.33072 -0.661459,0 -0.661459,0.39687 l -0.330729,0.13229 q -0.760677,-0.13229 -1.058333,-0.46302 -1.190625,0.23151 -1.190625,0.72761 v 0.19843 l 0.06615,0.26459 -0.06615,0.0661 v 0.0661 q 0,0.34726 0.727604,0.79375 0.115755,0.92604 0.661458,0.92604 0.463021,0 0.992188,0.39687 l 1.653645,0.39688 h 0.198438 q 0.380338,0 0.992187,-0.59531 0.165365,0 0.463021,-0.39688 l 0.264584,-0.0661 0.198437,0.13229 h 0.06615 q 0.330729,0 0.661458,-0.59531 0.330729,0 0.79375,-0.52917 l 0.926042,-0.52917 q 1.058333,0.51263 1.058333,1.19063 -0.479557,0.51263 -0.595312,1.38906 -1.058334,0.62838 -1.058334,1.12448 -0.595312,0.71107 -2.116666,1.25677 0,0.13229 -0.330729,0.13229 v 0.0661 l -1.058334,-0.13229 -1.190625,0.33072 q -1.058333,-0.66145 -1.389062,-0.66145 -1.455208,0 -1.455208,-0.66146 -0.248047,-0.19844 -0.463021,-0.19844 l -0.330729,0.0661 q -0.297657,-0.29766 -0.595313,-0.99219 -0.248047,-0.13229 -0.529166,-0.79375 -0.777214,-0.39688 -0.79375,-0.72761 l 0.06615,-0.0661 v -0.0662 q -0.396875,-0.61185 -0.396875,-0.79375 0,-0.7276 -0.529166,-2.3151 l 0.132291,-0.52917 -0.06615,-0.39687 v -0.0661 l 0.529166,-1.52135 q 0,-1.71979 0.926042,-2.77813 l 0.06615,-0.0661 q 0.132291,0 0.132291,-0.39688 l 1.653646,-1.25677 q 0.413412,0 0.926042,-0.59531 l 1.852083,-0.33073 q 0.396875,0.0496 0.396875,0.13229 z m -1.852084,2.64583 q 0,0.33073 -0.396875,0.59531 h -0.198437 q -0.248047,0 -0.595313,-0.26458 h -0.264583 l -1.322917,1.05833 -0.46302,0.79375 v 0.26458 q 0.281119,0.38034 1.25677,0.99219 l 0.06615,0.0661 v 0.0661 q 0.396875,-0.26458 0.595313,-0.26458 h 0.06615 l 0.79375,0.19844 q 0.595312,-0.1819 1.124479,-0.52917 0.727604,0.52917 0.992187,0.52917 h 0.06615 q 0.23151,0 0.727604,-0.39688 h 0.132292 l 0.198437,0.13229 h 0.132292 q 0.859896,-0.38033 0.859896,-1.32291 -0.115756,-0.31419 -1.389063,-1.45521 l -0.529166,0.0661 -0.264584,-0.0661 -0.529166,0.19844 h -0.264584 z" />
        <path
           id="path174"
           style="font-style:normal;font-variant:normal;font-weight:normal;font-stretch:normal;font-size:33.86666489px;font-family:'Urania Czech';-inkscape-font-specification:'Urania Czech, Normal';font-variant-ligatures:normal;font-variant-caps:normal;font-variant-numeric:normal;font-feature-settings:normal;text-align:start;writing-mode:lr-tb;text-anchor:start;fill:#444444;fill-opacity:1;stroke-width:0.26458332"
           d="m 116.99544,268.67304 0.13229,-0.0827 q 0.0496,-0.0331 0.11576,-0.0331 0.33073,0 1.17409,0.87644 0.0661,0.31419 0.0661,0.52916 0,0.26459 -0.11575,0.34727 -0.11576,0.23151 -0.11576,0.47956 0,0.42994 0.33073,0.92604 0.13229,0.29765 0.13229,0.51263 0,0.29765 -0.23151,0.46302 0.0165,0.0331 0.0165,0.0992 0,0.1819 -0.14883,0.57877 l 0.11576,0.36381 0.33073,0.41341 q -0.28112,0.56224 -0.28112,0.69453 v 0.0331 q 0.0827,0.24805 0.0827,0.61185 0,0.51263 -0.16537,1.25677 l 0.1323,0.23151 0.16536,0.14883 q 0.0331,0.0496 0.0331,0.11575 0,0.19844 -0.26458,0.4961 -0.0992,0.66146 -0.0992,1.10794 0,0.5457 0.14883,0.79375 -0.11576,0.52917 -0.11576,0.89297 0,0.34727 0.11576,0.5457 -0.19844,0.26459 -0.19844,0.52917 0,0.19844 0.13229,0.41341 -0.0827,0.19844 -0.0827,0.8599 0,0.41341 0.0331,0.99218 -0.24804,0.18191 -0.24804,0.52917 0,0.29766 0.16536,0.69453 l 0.0992,1.48828 q -0.1819,0.34727 -0.1819,0.62839 0,0.24805 0.13229,0.44648 0.13229,0.19844 0.13229,0.42995 0,0.23151 -0.11575,0.46302 0.13229,0.3638 0.13229,0.61185 0,0.33073 -0.23151,0.49609 -0.0165,0.1323 -0.0165,0.28112 0,0.39688 0.14883,0.97566 -0.0827,0.0661 -0.16536,0.71106 -0.1819,0.13229 -0.3142,0.8599 l -0.26458,0.44648 q -0.13229,0.0992 -0.42995,0.0992 -0.34726,0 -0.9095,-0.13229 l -0.14883,-0.21497 q -0.21497,-0.62839 -0.21497,-1.05834 0,-0.52916 0.34726,-0.77721 0,-0.28112 -0.19844,-0.57878 v -0.52916 q 0,-0.89297 0.0827,-1.67019 -0.18191,-0.38033 -0.18191,-0.67799 0,-0.19844 0.0662,-0.34727 l 0.0331,-1.12447 -0.0661,-0.8599 q 0.0661,-0.0496 0.0661,-0.16537 0,-0.23151 -0.28112,-0.7276 v -0.0496 q 0,-0.34726 0.19844,-0.99219 -0.0496,-0.0827 -0.0496,-0.1819 0,-0.29765 0.39688,-0.82682 -0.0827,-0.13229 -0.0827,-0.56224 0,-0.21497 0.0165,-0.49609 -0.19844,-0.47956 -0.19844,-0.77722 0,-0.24804 0.14883,-0.3638 l -0.19844,-1.73633 0.0165,-0.0827 q -0.0165,-0.0165 -0.0165,-0.0661 0,-0.13229 0.16537,-0.47955 0.0165,-0.0992 0.0165,-0.1819 0,-0.34727 -0.26458,-0.76068 0.13229,-0.24805 0.13229,-0.56224 0,-0.23151 -0.0661,-0.51263 0.11575,-0.1819 0.11575,-0.81029 0,-0.24804 -0.0165,-0.56224 0.0331,-0.0165 0.0331,-0.11575 0,-0.19844 -0.13229,-0.71107 0.0331,-0.14883 0.0331,-0.34726 0,-0.28112 -0.0662,-0.66146 0.24805,-0.24805 0.38034,-1.24024 l -0.0827,-0.0165 -0.0165,-0.0496 q -0.0496,-0.39688 -0.0496,-0.69453 0,-0.71107 0.26459,-0.87644 l 0.29765,-0.21497 z" />
        <path
           id="path176"
           style="font-style:normal;font-variant:normal;font-weight:normal;font-stretch:normal;font-size:33.86666489px;font-family:'Urania Czech';-inkscape-font-specification:'Urania Czech, Normal';font-variant-ligatures:normal;font-variant-caps:normal;font-variant-numeric:normal;font-feature-settings:normal;text-align:start;writing-mode:lr-tb;text-anchor:start;fill:#444444;fill-opacity:1;stroke-width:0.26458332"
           d="m 147.42252,275.63489 h 0.19843 q 0.64493,0.61185 1.65365,0.99219 l 0.7276,1.12448 v 0.0661 l -0.13229,0.7276 v 0.33073 l 0.26459,0.8599 -0.26459,3.30729 0.13229,0.39688 q 0,0.46302 -0.13229,0.46302 l 0.0661,0.26458 -0.0661,0.92604 0.19844,0.39688 -0.0662,0.79375 0.19844,0.39687 -0.19844,0.72761 q 0.0662,0.28112 0.33073,0.46302 l 0.0661,-0.0661 h 0.33073 q 0.64492,0 0.92604,1.38906 v 0.46302 q -0.24805,0.51263 -1.25677,0.72761 l -0.0661,0.0661 h -0.0661 q -0.46302,0 -0.46302,-0.13229 l -0.92605,0.33073 -1.4552,-0.39687 -0.39688,0.0661 -0.79375,-0.33073 h -0.0661 l -0.8599,0.26459 h -0.33073 q -0.31419,0 -0.66146,-0.19844 l -0.85989,0.46302 -1.38907,-0.13229 -0.52916,0.13229 q -0.99219,-0.23151 -0.99219,-0.66146 h -0.13229 q -0.29766,0.52917 -0.72761,0.52917 h -0.39687 l -0.66146,-0.13229 -1.05833,0.33073 q -0.39688,0 -1.19063,-0.26459 l -1.19062,0.13229 q -0.1819,-0.0827 -0.46302,-0.59531 v -0.13229 q 0.26458,-0.8599 0.26458,-1.25677 1.52135,-0.57878 1.52135,-1.65365 v -0.0661 l -0.13229,-0.52917 q 0,-0.41341 0.52917,-0.79375 0,-0.34726 -0.39688,-0.99219 l 0.0661,-0.59531 -0.0661,-0.19844 0.0661,-0.26458 v -0.13229 l -0.0661,-0.26458 0.1323,-0.72761 -0.19844,-0.39687 0.0661,-1.19063 -0.19843,-1.45521 q -0.19844,0 -0.39688,-0.99218 -0.11575,0 -0.13229,-0.33073 v -0.33073 q 0.23151,-1.45521 0.92604,-1.45521 1.00873,0 1.65365,0.79375 h 0.19844 q 1.38906,-1.05833 1.65364,-1.05833 h 0.8599 l 0.99218,-0.1323 q 0.18191,0 0.8599,0.79375 0.26458,0.0661 0.99219,0.8599 0.57877,0 1.12448,-1.05833 0.21497,-0.26459 1.71979,-0.33073 0.39687,-0.33073 0.66146,-0.33073 z m -2.91042,5.22552 v 0.0661 l 0.13229,0.52917 -0.13229,0.79375 0.13229,0.72761 q -0.52916,0.33072 -0.52916,0.46302 0,0.46302 0.46302,0.99218 v 0.0661 q 0,0.23151 -0.26459,0.52917 v 0.26458 l 0.13229,0.7276 -0.0661,0.52917 q 0.51263,1.12448 0.99219,1.12448 l 0.85989,0.59531 h 0.0661 q 0.62838,-0.62838 1.32291,-0.7276 v 0.0661 q 0.33073,-0.0661 0.46302,-0.26458 l -0.0661,-0.0661 v -0.0661 l 0.0661,-0.19844 q -0.33072,0 -0.33072,-1.52135 l 0.33072,-1.05834 q 0,-0.26458 -0.26458,-0.66145 l 0.0661,-0.99219 q -0.19844,-0.31419 -0.19844,-0.72761 l 0.26458,-0.66145 -0.13229,-0.46303 q 0.13229,-0.14882 0.13229,-0.7276 l 0.0661,-0.19844 h 0.0661 q 0,-0.81028 -0.66145,-1.12448 0,-0.19843 -0.26459,-0.33073 h -0.0661 q -0.66146,0.0992 -1.78594,1.38907 -0.0827,0.66146 -0.59531,0.66146 z m -3.96875,-2.05052 -0.19844,-0.0661 v 0.52917 q -0.1819,0.29766 -0.92604,0.59531 0,0.5457 -0.66146,2.31511 -0.0992,0 -0.39687,0.52916 v 0.0661 l 0.19844,0.7276 -0.1323,0.66146 0.0661,0.39688 v 0.33072 q -0.33073,0.47956 -0.33073,0.72761 0.46302,0.79375 0.46302,0.99219 l -0.0661,0.46302 q 0.84335,1.19062 1.5875,1.19062 l 0.26458,0.19844 h 0.13229 q 0.64492,-0.7276 1.19063,-0.8599 0.52916,-1.00872 0.52916,-1.25677 l -0.0661,-0.52916 q 0.0331,-0.41342 0.33073,-0.79375 v -0.0661 q -0.46303,-0.46302 -0.46303,-0.7276 v -0.1323 q 0.66146,-0.47955 0.66146,-0.59531 -0.74414,-0.51263 -0.79375,-0.7276 v -0.19844 l 0.0661,-0.7276 -0.13229,-0.52917 v -0.19844 q 0.46302,-0.51263 0.46302,-0.92604 -0.3142,-1.52135 -1.25677,-1.52135 z" />
        <path
           id="path178"
           style="font-style:normal;font-variant:normal;font-weight:normal;font-stretch:normal;font-size:33.86666489px;font-family:'Urania Czech';-inkscape-font-specification:'Urania Czech, Normal';font-variant-ligatures:normal;font-variant-caps:normal;font-variant-numeric:normal;font-feature-settings:normal;text-align:start;writing-mode:lr-tb;text-anchor:start;fill:#444444;fill-opacity:1;stroke-width:0.26458332"
           d="m 163.18177,275.83333 h 0.0661 q 0.72761,0.79375 1.71979,0.79375 0.46302,0 1.25677,0.99218 0.81029,0 1.32292,2.4474 0.59531,0.44648 0.59531,1.52135 0,1.14102 -0.79375,1.91823 l -0.26458,0.66146 h -0.0661 l -0.39687,-0.0662 q -0.52917,0.38034 -1.05833,0.46303 v -0.0661 l -0.59532,0.19844 -0.85989,-0.46302 -0.19844,0.0661 -0.19844,-0.13229 q -0.84336,0.28112 -1.5875,0.7276 h -0.33073 q -0.26458,0 -0.52916,-0.33072 -0.66146,0 -0.66146,0.39687 l -0.33073,0.13229 q -0.76068,-0.13229 -1.05833,-0.46302 -1.19063,0.23151 -1.19063,0.72761 v 0.19843 l 0.0661,0.26459 -0.0661,0.0661 v 0.0661 q 0,0.34726 0.72761,0.79375 0.11575,0.92604 0.66145,0.92604 0.46303,0 0.99219,0.39687 l 1.65365,0.39688 h 0.19844 q 0.38033,0 0.99218,-0.59531 0.16537,0 0.46302,-0.39688 l 0.26459,-0.0661 0.19843,0.13229 h 0.0662 q 0.33073,0 0.66146,-0.59531 0.33073,0 0.79375,-0.52917 l 0.92604,-0.52917 q 1.05833,0.51263 1.05833,1.19063 -0.47955,0.51263 -0.59531,1.38906 -1.05833,0.62838 -1.05833,1.12448 -0.59532,0.71107 -2.11667,1.25677 0,0.13229 -0.33073,0.13229 v 0.0661 l -1.05833,-0.13229 -1.19063,0.33072 q -1.05833,-0.66145 -1.38906,-0.66145 -1.45521,0 -1.45521,-0.66146 -0.24804,-0.19844 -0.46302,-0.19844 l -0.33073,0.0661 q -0.29765,-0.29766 -0.59531,-0.99219 -0.24805,-0.13229 -0.52917,-0.79375 -0.77721,-0.39688 -0.79375,-0.72761 l 0.0662,-0.0661 v -0.0662 q -0.39688,-0.61185 -0.39688,-0.79375 0,-0.7276 -0.52916,-2.3151 l 0.13229,-0.52917 -0.0661,-0.39687 v -0.0661 l 0.52917,-1.52135 q 0,-1.71979 0.92604,-2.77813 l 0.0661,-0.0661 q 0.13229,0 0.13229,-0.39688 l 1.65365,-1.25677 q 0.41341,0 0.92604,-0.59531 l 1.85208,-0.33073 q 0.39688,0.0496 0.39688,0.13229 z m -1.85209,2.64583 q 0,0.33073 -0.39687,0.59531 h -0.19844 q -0.24805,0 -0.59531,-0.26458 h -0.26458 l -1.32292,1.05833 -0.46302,0.79375 v 0.26458 q 0.28112,0.38034 1.25677,0.99219 l 0.0661,0.0661 v 0.0661 q 0.39688,-0.26458 0.59532,-0.26458 h 0.0661 l 0.79375,0.19844 q 0.59532,-0.1819 1.12448,-0.52917 0.72761,0.52917 0.99219,0.52917 h 0.0661 q 0.23151,0 0.7276,-0.39688 h 0.13229 l 0.19844,0.13229 h 0.13229 q 0.8599,-0.38033 0.8599,-1.32291 -0.11576,-0.31419 -1.38907,-1.45521 l -0.52916,0.0661 -0.26459,-0.0661 -0.52916,0.19844 h -0.26459 z" />
        <path
           id="path180"
           style="font-style:normal;font-variant:normal;font-weight:normal;font-stretch:normal;font-size:33.86666489px;font-family:'Urania Czech';-inkscape-font-specification:'Urania Czech, Normal';font-variant-ligatures:normal;font-variant-caps:normal;font-variant-numeric:normal;font-feature-settings:normal;text-align:start;writing-mode:lr-tb;text-anchor:start;fill:#444444;fill-opacity:1;stroke-width:0.26458332"
           d="m 177.13853,269.99596 q 0.64492,0.42994 0.678,0.9095 l 0.0331,0.81029 -0.0992,1.02526 q -0.0331,0.16536 -0.0331,0.31419 0,0.39688 0.19844,0.678 l -0.0661,0.66145 1.05833,0.8599 0.26459,0.0661 0.33073,-0.0661 0.66145,0.19844 0.46303,-0.13229 q 0.21497,0.16536 1.32291,0.26458 l 0.0661,0.0661 0.99218,-0.19843 q 0.61185,0 0.72761,1.05833 v 0.26458 q -0.31419,1.19063 -1.05833,1.19063 l -0.0661,-0.0661 0.0661,-0.33073 v -0.13229 l -0.26459,-0.13229 h -0.0661 l -0.8599,0.59531 -0.99219,-0.13229 -0.39687,0.0662 -0.39688,-0.13229 h -0.0661 q -0.24805,0 -0.52917,0.33072 -0.92604,0 -0.92604,0.46303 -0.46302,0.69453 -0.46302,0.99218 0,0.21498 0.26458,0.59532 v 0.26458 l -0.33073,1.05833 v 0.26459 l 0.33073,0.7276 v 0.0661 l -0.26458,0.66145 v 0.0661 l -0.0661,1.71979 q 0.51263,1.52136 0.99219,1.52136 0.3638,0.7276 1.25677,0.7276 0.99219,-0.39688 0.99219,-1.12448 0.38034,-0.21497 0.7276,-1.05833 l -0.0661,-0.59532 q 0.26458,-1.4552 0.79375,-1.4552 l 0.7276,-0.33073 h 0.0661 q 0.46302,0.21497 0.52916,2.3151 l -0.0661,0.19844 q 0.0661,0.59531 0.39687,0.99219 v 0.26458 q -0.28112,0.7276 -0.59531,0.92604 0,0.61185 -0.7276,0.92604 -0.23151,1.05834 -0.8599,1.05834 l -0.79375,0.79375 q -0.13229,0.13229 -1.12448,0.19843 0,-0.13229 -0.33073,-0.13229 v -0.0661 l -0.59531,0.19843 -0.39688,-0.19843 h -0.0661 l -0.66146,0.0661 q -0.16536,-0.5457 -1.12448,-1.05833 -0.26458,0 -0.26458,-0.66146 -0.31419,0 -0.59531,-1.12448 -0.46303,-0.5457 -0.46303,-0.85989 0.33073,-0.95912 0.33073,-1.45521 v -0.8599 l -0.26458,-0.79375 0.19844,-0.46302 -0.0661,-0.46302 v -0.39688 l 0.19844,-0.59531 -0.19844,-0.92604 0.26459,-0.66146 v -0.0661 l -0.26459,-0.33073 v -0.13229 l 0.52917,-0.79375 v -0.0661 q -0.64492,-0.99219 -1.19063,-0.99219 l -0.7276,0.33073 q -0.33073,-0.0827 -0.7276,-0.7276 h -0.1323 l -0.59531,0.46302 q -1.19062,-0.11576 -1.25677,-0.39688 v -0.33073 q 0.38034,-1.4552 1.45521,-1.4552 0.76068,0 1.19062,-0.46303 h 0.19844 q 0.21498,0 0.46302,0.19844 1.09141,-0.74414 1.12448,-0.99218 l 0.13229,-0.46303 -0.0661,-0.59531 q 0,-0.21497 -0.19844,-1.12448 v -0.13229 l -0.24805,-1.07487 q 0.44649,-0.62838 1.5875,-0.67799 z" />
        <path
           id="path182"
           style="font-style:normal;font-variant:normal;font-weight:normal;font-stretch:normal;font-size:33.86666489px;font-family:'Urania Czech';-inkscape-font-specification:'Urania Czech, Normal';font-variant-ligatures:normal;font-variant-caps:normal;font-variant-numeric:normal;font-feature-settings:normal;text-align:start;writing-mode:lr-tb;text-anchor:start;fill:#444444;fill-opacity:1;stroke-width:0.26458332"
           d="m 193.59231,275.83333 q 1.10794,0 1.32291,0.39687 l 0.0661,-0.0661 h 0.33073 l 1.71979,0.39687 0.39688,-0.13229 q 0.7276,0 0.99218,0.46302 0,0.29766 0.99219,0.7276 0.39688,0.29766 0.59531,1.45521 0,0.4961 0.19844,0.8599 l -0.0661,0.59531 0.1323,0.8599 q -0.1819,0.0165 -0.39688,0.79375 l 0.33073,0.92604 -0.13229,0.46302 0.0661,0.59531 -0.26458,0.39688 0.0661,0.19843 -0.0661,0.46302 h 0.0661 q 0.59531,0.34727 0.59531,0.99219 v 0.0662 q 0,0.26458 -0.52917,0.99218 v 0.39688 l 0.54571,0.28112 1.15755,-0.0661 0.29765,0.21498 0.1323,0.24804 0.28112,0.11576 0.21497,0.56224 -0.19844,0.7276 q 0.0165,0.0331 0.0165,0.0661 0,0.1819 -0.38034,0.62838 l -0.26458,0.23151 -0.64492,0.0165 q -0.29766,0.19844 -0.52917,0.19844 -0.0827,0 -0.16537,-0.0331 l -0.39687,0.11575 q -0.57878,-0.0496 -1.12448,-0.59531 h -0.52917 q -1.05833,-0.19844 -1.05833,-0.46302 h -0.59531 q -0.39688,0.42995 -1.19063,0.59531 l -0.52916,-0.0661 q -0.54571,0.33073 -0.79375,0.33073 l -0.79375,-0.0661 q 0,0.13229 -0.99219,0.26458 h -0.13229 l -0.72761,-0.59531 -0.52916,0.19844 -1.25677,-0.72761 q -0.0992,0.26459 -0.46303,0.26459 h -0.0661 q -0.46302,0 -0.59531,-0.66146 -0.72761,-0.42995 -0.72761,-0.92604 l -0.52916,-0.8599 -0.1323,-0.46302 v -0.13229 l 0.39688,-0.66146 -0.19844,-0.72761 q 0.1819,-0.64492 0.92604,-1.05833 0.21498,-0.7276 0.72761,-0.7276 0,-0.26459 1.19062,-1.12448 h 0.0661 l 0.33073,0.0661 0.26458,-0.26458 h 0.0661 l 0.39687,0.13229 0.13229,-0.13229 h 0.33073 l 0.0661,0.0661 h 0.0661 q 0.16537,-0.33073 0.52917,-0.33073 l 0.59531,0.13229 0.46302,-0.26458 h 0.33073 l 0.0661,0.0661 q 0.64492,-0.0661 0.99219,-0.26458 l 0.26458,0.0661 q 0.16536,0 1.19062,-0.7276 h 0.19844 q 0.29766,0.19844 0.59531,0.19844 l 0.0661,-0.0661 v -0.0661 l -0.13229,-0.52917 v -0.19844 l 0.66146,-0.66146 q -1.28985,-0.66146 -1.45521,-1.19062 -0.678,-0.38034 -1.32292,-0.46302 l -0.52916,-0.39688 -0.39688,0.0661 -0.66146,-0.0661 -0.0661,0.0661 h -0.0661 l -0.0661,-0.0661 h -0.0661 q -0.97565,0 -1.52136,0.46302 l 0.0661,0.0661 v 0.59531 q -0.26458,2.05052 -0.66146,2.05052 l -0.7276,0.79375 q -1.91823,-0.44648 -1.91823,-1.38906 l -0.33073,-0.52917 v -0.0661 l 0.26458,-0.79375 v -0.66146 q 0.19844,-0.47956 0.99219,-0.7276 0.14883,-0.0827 0.52917,-0.79375 0.42994,0 1.91823,-0.66146 l 0.7276,-0.13229 h 0.59531 z m 2.28203,8.40052 -0.66146,-0.1323 q -0.62838,0.23152 -1.45521,0.33073 l -0.0661,0.0661 q -0.33073,0.0331 -0.33073,0.39687 l -0.19844,0.1323 h -0.0661 q -0.21497,0 -0.26458,-0.46302 h -0.13229 q -0.42995,0 -0.92604,0.52916 h -0.0661 l -0.39687,-0.33073 h -0.0661 q -0.1819,0 -0.7276,0.39688 -0.72761,0.26458 -0.99219,0.85989 0,0.14883 -0.33073,0.46302 0.23151,0.39688 0.79375,0.59532 0.46302,0.57877 0.46302,0.92604 l -0.0661,0.26458 0.33073,0.0661 q 0.28112,-0.26459 1.05834,-0.26459 0.39687,0.46303 1.25677,0.46303 h 0.33073 q 0.26458,-0.26459 0.79375,-0.26459 l 0.33073,-0.33073 h 0.13229 q 0.14883,0 0.19844,0.33073 l 0.59531,-0.52916 h 0.39687 q 0,-0.33073 1.05834,-0.46303 h 0.19843 q 0.0827,-0.85989 0.46302,-0.85989 0,-0.59531 0.46303,-1.32292 v -0.19844 q 0,-0.26458 -0.72761,-0.99218 h -0.0661 z" />
        <path
           id="path184"
           style="font-style:normal;font-variant:normal;font-weight:normal;font-stretch:normal;font-size:33.86666489px;font-family:'Urania Czech';-inkscape-font-specification:'Urania Czech, Normal';font-variant-ligatures:normal;font-variant-caps:normal;font-variant-numeric:normal;font-feature-settings:normal;text-align:start;writing-mode:lr-tb;text-anchor:start;fill:#444444;fill-opacity:1;stroke-width:0.26458332"
           d="m 208.95469,270.37629 h 0.19844 l 0.7276,0.19844 1.45521,-0.0661 0.46302,0.19843 0.99219,-0.0661 q 0.44648,0.34726 0.7276,1.71979 0.33073,0.26458 0.33073,0.59531 v 0.19844 l -0.26458,0.46302 -0.0661,1.19063 0.19844,0.46302 v 0.39687 l -0.26458,0.92604 0.13229,0.52917 v 0.26458 l -0.19844,0.79375 0.0661,0.26459 -0.1323,1.05833 0.39688,0.7276 q -0.26458,0.94258 -0.26458,1.38907 v 0.0661 l 0.19843,1.52136 -0.13229,0.59531 0.19844,0.79375 -0.33073,1.12448 q 0,0.21497 0.19844,0.46302 v 0.7276 q 0.33073,0 0.99218,0.79375 l 0.33073,0.13229 q 0.97565,-0.1819 1.25677,-0.46302 h 0.1323 l 0.79375,0.19844 0.99218,-0.0661 q 0.99219,0.39688 0.99219,1.38907 -0.23151,0.61185 -0.8599,1.05833 l -0.52916,0.33073 -0.79375,-0.13229 -0.8599,0.19844 -0.0661,-0.0662 H 215.9 l -0.0661,0.0662 -0.33073,-0.0662 h -0.46302 l -1.19063,0.26458 -0.26458,-0.13229 -0.33073,0.0661 q -1.05834,-0.0496 -1.05834,-0.19844 l -0.52916,0.19844 -0.59531,-0.13229 h -0.39688 l -0.33073,-0.19844 -0.66146,0.13229 -0.26458,-0.0661 h -0.13229 q -0.24805,0.19844 -0.59531,0.19844 l -1.12448,-0.13229 -0.46302,0.0662 q -1.02526,0 -1.12448,-1.25678 l 0.46302,-1.19062 q 0.26458,-0.39688 0.66146,-0.39688 l 1.32291,0.33073 0.66146,-0.19843 0.39688,0.13229 q 0.67799,-0.1819 1.25677,-0.66146 0.3638,0 0.46302,-0.26458 l -0.0662,-0.8599 0.19844,-0.7276 v -0.39688 l -0.13229,-0.7276 q 0.28112,-1.68672 0.59531,-1.98438 -0.0661,-0.52916 -0.33073,-0.85989 l 0.19844,-0.8599 -0.13229,-0.46302 0.0661,-0.59531 v -0.19844 q -0.26458,0 -0.46302,-0.39687 l 0.19844,-0.52917 -0.0661,-0.39688 0.19844,-1.38906 v -0.13229 l -0.19844,-1.45521 0.0661,-0.85989 V 273.419 q 0,-0.51263 -0.26458,-0.59531 -0.24805,0.19844 -0.46303,0.19844 l -0.66145,-0.39688 -0.66146,0.19844 -1.12448,-0.26458 -0.66146,0.26458 q -1.45521,-0.16536 -1.45521,-0.59531 -0.19844,0 -0.33073,-0.59531 0.44649,-1.12448 1.5875,-1.12448 l 0.79375,0.13229 q 0.52917,-0.26459 0.8599,-0.26459 z" />
        <path
           id="path186"
           style="font-style:normal;font-variant:normal;font-weight:normal;font-stretch:normal;font-size:33.86666489px;font-family:'Urania Czech';-inkscape-font-specification:'Urania Czech, Normal';font-variant-ligatures:normal;font-variant-caps:normal;font-variant-numeric:normal;font-feature-settings:normal;text-align:start;writing-mode:lr-tb;text-anchor:start;fill:#444444;fill-opacity:1;stroke-width:0.26458332"
           d="m 236.58709,268.67304 0.1323,-0.0827 q 0.0496,-0.0331 0.11575,-0.0331 0.33073,0 1.17409,0.87644 0.0661,0.31419 0.0661,0.52916 0,0.26459 -0.11576,0.34727 -0.11575,0.23151 -0.11575,0.47956 0,0.42994 0.33072,0.92604 0.1323,0.29765 0.1323,0.51263 0,0.29765 -0.23151,0.46302 0.0165,0.0331 0.0165,0.0992 0,0.1819 -0.14883,0.57877 l 0.11576,0.36381 0.33073,0.41341 q -0.28112,0.56224 -0.28112,0.69453 v 0.0331 q 0.0827,0.24805 0.0827,0.61185 0,0.51263 -0.16536,1.25677 l 0.13229,0.23151 0.16536,0.14883 q 0.0331,0.0496 0.0331,0.11575 0,0.19844 -0.26459,0.4961 -0.0992,0.66146 -0.0992,1.10794 0,0.5457 0.14883,0.79375 -0.11575,0.52917 -0.11575,0.89297 0,0.34727 0.11575,0.5457 -0.19844,0.26459 -0.19844,0.52917 0,0.19844 0.1323,0.41341 -0.0827,0.19844 -0.0827,0.8599 0,0.41341 0.0331,0.99218 -0.24805,0.18191 -0.24805,0.52917 0,0.29766 0.16536,0.69453 l 0.0992,1.48828 q -0.1819,0.34727 -0.1819,0.62839 0,0.24805 0.13229,0.44648 0.13229,0.19844 0.13229,0.42995 0,0.23151 -0.11575,0.46302 0.13229,0.3638 0.13229,0.61185 0,0.33073 -0.23151,0.49609 -0.0165,0.1323 -0.0165,0.28112 0,0.39688 0.14883,0.97566 -0.0827,0.0661 -0.16536,0.71106 -0.1819,0.13229 -0.31419,0.8599 l -0.26459,0.44648 q -0.13229,0.0992 -0.42995,0.0992 -0.34726,0 -0.9095,-0.13229 l -0.14883,-0.21497 q -0.21497,-0.62839 -0.21497,-1.05834 0,-0.52916 0.34726,-0.77721 0,-0.28112 -0.19843,-0.57878 v -0.52916 q 0,-0.89297 0.0827,-1.67019 -0.1819,-0.38033 -0.1819,-0.67799 0,-0.19844 0.0661,-0.34727 l 0.0331,-1.12447 -0.0661,-0.8599 q 0.0661,-0.0496 0.0661,-0.16537 0,-0.23151 -0.28112,-0.7276 v -0.0496 q 0,-0.34726 0.19843,-0.99219 -0.0496,-0.0827 -0.0496,-0.1819 0,-0.29765 0.39688,-0.82682 -0.0827,-0.13229 -0.0827,-0.56224 0,-0.21497 0.0165,-0.49609 -0.19843,-0.47956 -0.19843,-0.77722 0,-0.24804 0.14882,-0.3638 l -0.19843,-1.73633 0.0165,-0.0827 q -0.0165,-0.0165 -0.0165,-0.0661 0,-0.13229 0.16536,-0.47955 0.0165,-0.0992 0.0165,-0.1819 0,-0.34727 -0.26459,-0.76068 0.1323,-0.24805 0.1323,-0.56224 0,-0.23151 -0.0661,-0.51263 0.11575,-0.1819 0.11575,-0.81029 0,-0.24804 -0.0165,-0.56224 0.0331,-0.0165 0.0331,-0.11575 0,-0.19844 -0.13229,-0.71107 0.0331,-0.14883 0.0331,-0.34726 0,-0.28112 -0.0661,-0.66146 0.24804,-0.24805 0.38033,-1.24024 l -0.0827,-0.0165 -0.0165,-0.0496 q -0.0496,-0.39688 -0.0496,-0.69453 0,-0.71107 0.26458,-0.87644 l 0.29766,-0.21497 z" />
        <path
           id="path188"
           style="font-style:normal;font-variant:normal;font-weight:normal;font-stretch:normal;font-size:33.86666489px;font-family:'Urania Czech';-inkscape-font-specification:'Urania Czech, Normal';font-variant-ligatures:normal;font-variant-caps:normal;font-variant-numeric:normal;font-feature-settings:normal;text-align:start;writing-mode:lr-tb;text-anchor:start;fill:#444444;fill-opacity:1;stroke-width:0.26458332"
           d="m 260.28385,276.19713 h 0.0662 q 1.12448,0.0165 1.12448,0.13229 l 0.19844,-0.0662 q 0.69453,0 2.64583,0.8599 1.0418,0 1.91823,1.98437 0.57877,0 0.79375,2.71198 0,0.57878 -0.92604,0.79375 -0.0496,0.11576 -0.8599,0.39688 -0.0992,0.33073 -0.46302,0.33073 -0.3638,0 -0.99219,-0.8599 -0.39687,-1.42213 -0.52916,-2.97656 -0.33073,-0.29766 -0.92605,-0.46302 l -0.39687,0.13229 h -0.0661 l -0.99218,-0.39687 -0.39688,-0.39688 H 260.35 q 0,0.57878 -0.59531,0.79375 l -0.92605,-0.13229 q -0.13229,0 -0.52916,0.79375 l -0.66146,0.99219 q -0.24805,0 -0.8599,1.78593 l 0.0661,0.0661 v 0.0661 l -0.26458,0.7276 0.19843,0.7276 -0.19843,1.52136 0.0661,0.0661 v 0.0661 l -0.0661,0.26458 q 0.0992,0.28112 1.05833,0.79375 0.82682,1.32292 1.12448,1.32292 0.29766,0 0.79375,0.39687 l 0.52917,0.1323 0.46302,-0.1323 0.26458,0.0661 q 0.82682,-0.19844 1.45521,-0.19844 h 0.19844 q 1.02526,-1.05833 1.91822,-1.05833 0.36381,-0.19844 0.72761,-1.12448 0.81029,-0.7276 1.12448,-0.7276 h 0.0661 q 0.66146,0.71106 0.66146,1.19062 0,0.39688 -0.46302,0.92604 -0.29766,1.52136 -0.59531,1.52136 -0.34727,0 -2.05052,1.52135 -0.28112,0.23151 -1.19063,0.33073 0,0.19844 -0.92604,0.33073 l -0.7276,-0.33073 -0.79375,0.33073 q -0.82683,-0.14883 -1.12448,-0.52917 l -0.46302,0.0661 h -0.19844 q -0.7276,-0.90951 -1.5875,-1.19063 -1.05833,-0.71106 -1.05833,-1.38906 l -0.0662,-0.0661 q 0,-0.19843 -0.46302,-0.19843 -0.24805,-0.28112 -0.39687,-1.12448 v -0.13229 l 0.13229,-0.46302 q -0.59532,-0.76068 -0.59532,-2.24896 l -0.0661,-0.19844 0.26458,-0.46302 v -0.0661 q 0,-0.38034 -0.39687,-0.85989 v -0.0661 l 0.39687,-0.85989 v -0.19844 l -0.0661,-0.39688 q 0.7276,-0.76067 0.7276,-1.65364 0.56224,-0.24805 0.92604,-0.72761 0,-0.46302 1.38906,-1.05833 0,-0.38034 1.52136,-0.52917 0.84336,-0.85989 1.19062,-0.85989 z" />
        <path
           id="path190"
           style="font-style:normal;font-variant:normal;font-weight:normal;font-stretch:normal;font-size:33.86666489px;font-family:'Urania Czech';-inkscape-font-specification:'Urania Czech, Normal';font-variant-ligatures:normal;font-variant-caps:normal;font-variant-numeric:normal;font-feature-settings:normal;text-align:start;writing-mode:lr-tb;text-anchor:start;fill:#444444;fill-opacity:1;stroke-width:0.26458332"
           d="m 275.8612,276.09791 h 0.13229 l 1.19063,0.26458 0.7276,-0.19843 h 0.0661 q 1.25677,0.33072 1.71979,0.7276 l 0.39687,-0.13229 q 0.39688,0 0.72761,0.7276 0.21497,0.19844 0.85989,0.26459 1.19063,1.32291 1.19063,2.3151 0,0.64492 0.52917,1.05833 l 0.33072,1.71979 -0.0661,0.79375 0.0661,0.0661 v 0.0661 l -0.0661,0.0661 v 0.0661 l 0.19844,0.46302 q 0,1.98437 -0.52917,1.98437 l -0.19844,0.66146 0.0661,0.46302 -0.59531,0.79375 q -0.0661,0.29766 -0.8599,1.05834 0,0.56223 -1.05833,0.66145 l -0.59532,0.46302 q -0.34726,0.24805 -0.46302,0.8599 l -0.19843,0.13229 h -0.33073 l -0.79375,-0.19844 q -0.57878,0.33073 -0.92604,0.33073 h -0.0661 q -0.31419,0 -0.99219,-0.46302 l -0.99219,0.0662 q -0.51263,-0.5457 -1.52135,-0.8599 l -0.39687,0.0661 q -0.99219,-0.8599 -0.99219,-1.65365 -0.42995,0 -0.99219,-0.66146 -0.23151,0 -0.59531,-0.79375 0.11575,-0.39687 0.19844,-0.39687 -0.18191,-0.51263 -0.33073,-0.59531 l 0.0661,-0.66146 -0.0661,-0.72761 0.0661,-0.19843 -0.26458,-0.72761 0.0661,-0.26458 -0.13229,-0.52917 q 0.59532,-0.76067 0.59532,-1.12448 l -0.0661,-0.85989 q 0,-1.05834 0.59531,-1.38906 0.31419,-0.28112 0.39688,-0.99219 0.66146,-0.92604 0.79375,-0.92604 0.29765,0 1.25677,-0.99219 l 1.5875,-0.39688 q 0.14883,-0.39687 0.26458,-0.39687 z m -0.85989,3.43958 h -0.0661 l -0.46302,-0.13229 q -0.38034,0.14883 -0.66146,0.46302 v 0.0661 l 0.26458,0.33073 q -0.23151,0.21497 -0.59531,1.25677 h -0.0661 l 0.0661,0.0661 v 0.19844 q -0.26458,0.23151 -0.39687,1.19063 l 0.39687,1.52135 v 0.0661 l -0.39687,0.46302 q 0,0.16536 0.7276,1.12448 l 0.13229,0.7276 0.33073,-0.0661 h 0.0661 l 0.46302,0.8599 0.0661,0.0661 h 0.19844 q 0,-0.19844 0.13229,-0.19844 0.24805,0 1.5875,0.7276 l 0.66146,0.13229 0.39688,-0.0661 0.26458,0.0661 q 1.45521,-0.47955 1.45521,-0.99218 l -0.13229,-0.72761 h 0.0661 q 1.19063,-0.16536 1.19063,-0.99219 0.3638,0 0.52916,-1.25677 0.11576,0 0.26459,-0.79375 -0.34727,-2.05052 -0.66146,-2.05052 l -0.13229,-0.59531 h 0.0661 q -0.14883,-0.92604 -0.7276,-0.92604 -0.84336,-0.99219 -1.19063,-0.99219 h -0.33073 l -0.33072,0.26458 q -0.26459,0 -0.26459,-0.59531 l -0.85989,-0.52916 q -0.14883,0 -0.66146,0.52916 -0.82683,0.14883 -1.38906,0.79375 z" />
        <path
           id="path192"
           style="font-style:normal;font-variant:normal;font-weight:normal;font-stretch:normal;font-size:33.86666489px;font-family:'Urania Czech';-inkscape-font-specification:'Urania Czech, Normal';font-variant-ligatures:normal;font-variant-caps:normal;font-variant-numeric:normal;font-feature-settings:normal;text-align:start;writing-mode:lr-tb;text-anchor:start;fill:#444444;fill-opacity:1;stroke-width:0.26458332"
           d="m 297.68932,270.19439 h 0.0661 q 0.5457,0 1.05833,1.65365 v 0.0661 q 0,0.42994 -0.19844,0.66145 l 0.19844,0.72761 v 0.7276 l 0.13229,0.99219 -0.26458,0.79375 0.33073,1.65365 q 0,0.47955 -0.33073,1.25677 0.26458,0.89296 0.26458,1.52135 -0.31419,0.59531 -0.33073,1.5875 l 0.19844,0.33073 v 0.13229 l -0.19844,0.66146 0.19844,0.66146 -0.19844,1.52135 q 0.19844,0.46302 0.26459,1.25677 0.41341,0.82683 0.66145,0.8599 l 0.46303,-0.0661 q 1.19062,0.71107 1.19062,1.32292 v 0.26458 q -0.3638,1.32292 -1.19062,1.32292 l -0.79375,-0.13229 q -0.3142,0.19843 -0.99219,0.19843 -0.59531,0 -1.12448,-1.05833 l -0.19844,-0.13229 h -0.79375 q -0.29765,1.19062 -2.11666,1.19062 -0.3142,0.39688 -0.66146,0.39688 h -0.26459 q -0.82682,-0.79375 -1.38906,-0.79375 -1.73633,-0.42995 -2.57969,-1.52135 l -0.7276,-1.05834 v -0.19844 l 0.13229,-0.66145 q -0.85989,-0.39688 -0.85989,-1.05834 l 0.0661,-0.19843 -0.26458,-0.92605 q 0.11575,-0.3638 0.33073,-0.52916 0,-0.42995 -0.59532,-1.32292 0.0165,-0.1819 0.59532,-0.92604 v -0.13229 l -0.0661,-0.46302 q 0.46302,-0.69453 0.46302,-1.19063 0,-0.47956 0.39688,-0.85989 0,-0.51263 1.19062,-1.32292 l 0.66146,-1.38906 q 1.27331,-0.26459 1.71979,-0.59532 l 0.8599,-0.26458 1.19062,0.26458 0.39688,-0.13229 h 0.0661 q 0.41341,0.38034 0.72761,0.92604 l 0.92604,0.39688 q 0,-0.13229 0.26458,-0.13229 v -0.0661 l -0.13229,-0.19844 v -0.13229 l 0.52917,-0.85989 -0.19844,-0.66146 0.13229,-0.66146 q -0.26458,-0.89297 -0.52916,-1.32292 -0.51264,0.26459 -1.05834,0.26459 l -0.59531,-0.19844 v 0.0661 l -0.13229,0.13229 h -0.0661 q -0.33073,0 -0.33073,-0.13229 l -0.0661,0.0661 h -0.39688 q -0.13229,0 -0.13229,-0.19844 l 0.0661,-0.19843 h -0.0661 l -0.13229,-0.1323 -0.0661,0.0661 h -0.0661 l -0.52917,-0.46302 v -0.26458 q 0,-0.41342 0.8599,-1.05834 0.42994,-0.26458 0.66145,-0.26458 l 0.39688,0.13229 0.59531,-0.13229 h 0.0661 q 0.74414,0.19844 1.71979,0.26458 z m -7.97057,10.68256 q 0.19844,0.0661 0.19844,0.39687 0,0.23151 -0.46302,0.7276 v 0.8599 l -0.0661,0.26458 q 0,0.42995 0.52917,1.05834 0,0.34726 -0.33073,0.52916 0.29765,1.52136 0.79375,1.52136 1.86862,1.62057 2.3151,1.78594 l 0.52917,-0.1323 0.26458,0.1323 0.0661,-0.0661 h 0.0661 l 0.26459,0.0661 q 0.21497,-0.72761 0.79375,-0.72761 l 0.0661,-0.0661 q 0.44649,-0.19844 0.46302,-0.39688 l -0.0661,-0.52917 q 0.9095,-0.52916 1.5875,-2.44739 l -0.0661,-0.0662 v -0.0661 l 0.13229,-0.66146 -0.0661,-0.19844 0.13229,-0.66146 -0.46302,-0.85989 q 0,-0.23151 -0.66146,-0.99219 l -0.52917,-0.99219 q 0,-0.33073 -0.79375,-0.7276 0,-0.52917 -1.25677,-0.52917 h -0.33073 l -0.39687,-0.26458 h -0.19844 q -0.62838,0 -0.8599,0.92604 0,0.13229 -0.66145,0.46302 -0.24805,1.19062 -0.8599,1.19062 z" />
        <path
           id="path194"
           style="font-style:normal;font-variant:normal;font-weight:normal;font-stretch:normal;font-size:33.86666489px;font-family:'Urania Czech';-inkscape-font-specification:'Urania Czech, Normal';font-variant-ligatures:normal;font-variant-caps:normal;font-variant-numeric:normal;font-feature-settings:normal;text-align:start;writing-mode:lr-tb;text-anchor:start;fill:#444444;fill-opacity:1;stroke-width:0.26458332"
           d="m 311.81145,275.83333 h 0.0661 q 0.7276,0.79375 1.71979,0.79375 0.46302,0 1.25677,0.99218 0.81029,0 1.32292,2.4474 0.59531,0.44648 0.59531,1.52135 0,1.14102 -0.79375,1.91823 l -0.26458,0.66146 h -0.0661 l -0.39688,-0.0662 q -0.52916,0.38034 -1.05833,0.46303 v -0.0661 l -0.59531,0.19844 -0.8599,-0.46302 -0.19843,0.0661 -0.19844,-0.13229 q -0.84336,0.28112 -1.5875,0.7276 h -0.33073 q -0.26458,0 -0.52917,-0.33072 -0.66146,0 -0.66146,0.39687 l -0.33073,0.13229 q -0.76067,-0.13229 -1.05833,-0.46302 -1.19062,0.23151 -1.19062,0.72761 v 0.19843 l 0.0661,0.26459 -0.0661,0.0661 v 0.0661 q 0,0.34726 0.7276,0.79375 0.11576,0.92604 0.66146,0.92604 0.46302,0 0.99219,0.39687 l 1.65364,0.39688 h 0.19844 q 0.38034,0 0.99219,-0.59531 0.16536,0 0.46302,-0.39688 l 0.26458,-0.0661 0.19844,0.13229 h 0.0661 q 0.33073,0 0.66146,-0.59531 0.33073,0 0.79375,-0.52917 l 0.92604,-0.52917 q 1.05834,0.51263 1.05834,1.19063 -0.47956,0.51263 -0.59531,1.38906 -1.05834,0.62838 -1.05834,1.12448 -0.59531,0.71107 -2.11666,1.25677 0,0.13229 -0.33073,0.13229 v 0.0661 l -1.05834,-0.13229 -1.19062,0.33072 q -1.05834,-0.66145 -1.38906,-0.66145 -1.45521,0 -1.45521,-0.66146 -0.24805,-0.19844 -0.46302,-0.19844 l -0.33073,0.0661 q -0.29766,-0.29766 -0.59532,-0.99219 -0.24804,-0.13229 -0.52916,-0.79375 -0.77722,-0.39688 -0.79375,-0.72761 l 0.0661,-0.0661 v -0.0662 q -0.39687,-0.61185 -0.39687,-0.79375 0,-0.7276 -0.52917,-2.3151 l 0.13229,-0.52917 -0.0661,-0.39687 v -0.0661 l 0.52916,-1.52135 q 0,-1.71979 0.92605,-2.77813 l 0.0661,-0.0661 q 0.13229,0 0.13229,-0.39688 l 1.65365,-1.25677 q 0.41341,0 0.92604,-0.59531 l 1.85208,-0.33073 q 0.39688,0.0496 0.39688,0.13229 z m -1.85208,2.64583 q 0,0.33073 -0.39688,0.59531 h -0.19843 q -0.24805,0 -0.59532,-0.26458 h -0.26458 l -1.32292,1.05833 -0.46302,0.79375 v 0.26458 q 0.28112,0.38034 1.25677,0.99219 l 0.0661,0.0661 v 0.0661 q 0.39687,-0.26458 0.59531,-0.26458 h 0.0661 l 0.79375,0.19844 q 0.59531,-0.1819 1.12448,-0.52917 0.7276,0.52917 0.99218,0.52917 h 0.0662 q 0.23151,0 0.7276,-0.39688 h 0.1323 l 0.19843,0.13229 h 0.13229 q 0.8599,-0.38033 0.8599,-1.32291 -0.11575,-0.31419 -1.38906,-1.45521 l -0.52917,0.0661 -0.26458,-0.0661 -0.52917,0.19844 h -0.26458 z" />
      </g>
    </g>
  </g>
</svg>
